<svg width="65" height="69" viewBox="0 0 65 69" fill="none" xmlns="http://www.w3.org/2000/svg">
<path d="M63.88 33.9254C63.88 50.7698 50.1694 64.4268 33.2591 64.4268C16.3488 64.4268 2.63818 50.7698 2.63818 33.9254C2.63818 17.0811 16.3488 3.42404 33.2591 3.42404C50.1694 3.42404 63.88 17.0811 63.88 33.9254Z" fill="#003B3B"/>
<path d="M24.3344 18.0648C22.5022 18.0648 21.0107 19.536 21.0107 21.342V46.5095C21.0107 48.3155 22.5022 49.7867 24.3344 49.7867H43.858C45.6902 49.7867 47.1816 48.3156 47.1816 46.5095V25.8148C47.1816 25.8148 47.2339 25.2088 46.967 24.6191C46.7168 24.0664 46.3091 23.6817 46.3091 23.6817C46.3081 23.6803 46.3071 23.679 46.3061 23.6776L41.4622 18.9943C41.4595 18.9916 41.4569 18.9889 41.4541 18.9863C41.4541 18.9863 41.0406 18.5982 40.4275 18.3388C39.7057 18.0335 38.9617 18.0657 38.9617 18.0657L38.9728 18.0647L24.3344 18.0648Z" fill="#FF2116"/>
<path d="M24.3343 19.1411H38.9727C38.9764 19.1412 38.9801 19.1412 38.9838 19.1411C38.9838 19.1411 39.5692 19.1467 39.9973 19.3278C40.4094 19.5022 40.7016 19.766 40.7036 19.7678C40.7036 19.7678 40.7056 19.7698 40.7056 19.7698L45.5374 24.4422C45.5374 24.4422 45.8285 24.7452 45.9696 25.057C46.0835 25.3086 46.0905 25.769 46.0905 25.769C46.09 25.7766 46.0896 25.7842 46.0894 25.7918V46.5094C46.0894 47.7378 45.1041 48.7101 43.8579 48.7101H24.3343C23.0881 48.7101 22.1028 47.7378 22.1028 46.5094V21.3418C22.1028 20.1134 23.0881 19.1411 24.3343 19.1411Z" fill="#F5F5F5"/>
<path d="M27.5453 36.9515C26.7939 36.2108 27.6069 35.193 29.8131 34.1123L31.2013 33.4322L31.7421 32.2658C32.0396 31.6243 32.4835 30.5776 32.7287 29.9398L33.1744 28.7801L32.8672 27.9218C32.4896 26.8665 32.3549 25.2807 32.5945 24.7105C32.9191 23.9381 33.9822 24.0173 34.4031 24.8453C34.7318 25.4919 34.6982 26.663 34.3086 28.1398L33.9891 29.3506L34.2705 29.8214C34.4252 30.0804 34.8773 30.6953 35.275 31.1879L36.0226 32.1045L36.9528 31.9848C39.908 31.6047 40.9201 32.2507 40.9201 33.177C40.9201 34.3461 38.5997 34.4426 36.6511 33.0935C36.2127 32.79 35.9116 32.4884 35.9116 32.4884C35.9116 32.4884 34.6909 32.7334 34.0899 32.8931C33.4695 33.0579 33.16 33.1611 32.2513 33.4635C32.2513 33.4635 31.9324 33.9199 31.7246 34.2517C30.9516 35.4862 30.0491 36.5093 29.4045 36.8816C28.6828 37.2985 27.9262 37.3269 27.5453 36.9515ZM28.7245 36.5362C29.1469 36.2789 30.0018 35.2822 30.5935 34.3572L30.8331 33.9827L29.7422 34.5234C28.0572 35.3585 27.2864 36.1455 27.6872 36.6216C27.9124 36.889 28.1818 36.8668 28.7245 36.5362ZM39.6692 33.508C40.0824 33.2227 40.0224 32.6479 39.5553 32.4162C39.1919 32.2358 38.8989 32.1988 37.9547 32.2125C37.3744 32.2515 36.4414 32.3668 36.2832 32.4019C36.2832 32.4019 36.7958 32.7511 37.0234 32.8794C37.3263 33.05 38.0625 33.3666 38.6 33.5287C39.1302 33.6887 39.4369 33.6719 39.6692 33.508ZM35.2685 31.705C35.0185 31.4459 34.5934 30.9052 34.3238 30.5034C33.9712 30.0476 33.7944 29.7261 33.7944 29.7261C33.7944 29.7261 33.5367 30.5431 33.3253 31.0348L32.6656 32.6419L32.4744 33.0064C32.4744 33.0064 33.4911 32.6778 34.0084 32.5446C34.5563 32.4036 35.6682 32.188 35.6682 32.188L35.2685 31.705ZM33.8503 26.0989C33.9141 25.5714 33.9412 25.0446 33.7692 24.779C33.2923 24.2651 32.7166 24.6937 32.8141 25.9155C32.847 26.3265 32.9505 27.0292 33.089 27.4623L33.3408 28.2497L33.5181 27.6566C33.6155 27.3305 33.7651 26.6295 33.8503 26.0989Z" fill="#FF2116"/>
<path d="M28.8232 40.3828H30.0432C30.4329 40.3828 30.7494 40.4196 30.9924 40.4931C31.2354 40.5643 31.4399 40.7243 31.6059 40.9734C31.772 41.22 31.855 41.5177 31.855 41.8664C31.855 42.1865 31.7876 42.4617 31.6529 42.6917C31.5181 42.9218 31.3364 43.0878 31.1079 43.1898C30.8817 43.2918 30.5328 43.3428 30.0612 43.3428H29.6389V45.239H28.8232V40.3828ZM29.6389 41.0054V42.6989H30.0432C30.4041 42.6989 30.6531 42.6324 30.7903 42.4996C30.9298 42.3668 30.9996 42.151 30.9996 41.8521C30.9996 41.6292 30.9539 41.4489 30.8624 41.3114C30.771 41.1714 30.67 41.086 30.5593 41.0552C30.451 41.022 30.279 41.0054 30.0432 41.0054L29.6389 41.0054ZM32.4794 40.3828H33.5874C34.124 40.3828 34.5522 40.4765 34.8723 40.6639C35.1947 40.8512 35.4377 41.1299 35.6013 41.4999C35.7673 41.8699 35.8504 42.2802 35.8504 42.7309C35.8504 43.2052 35.7758 43.6286 35.6266 44.001C35.4798 44.371 35.2536 44.6698 34.9481 44.8975C34.6449 45.1252 34.2118 45.239 33.6487 45.239H32.4794V40.3828ZM33.295 41.0267V44.5951H33.6343C34.1083 44.5951 34.4524 44.4338 34.6665 44.1112C34.8807 43.7863 34.9878 43.3535 34.9878 42.8127C34.9878 41.6221 34.5366 41.0267 33.6343 41.0267H33.295ZM36.6336 40.3828H39.3693V41.0267H37.4492V42.4783H38.9868V43.1222H37.4492V45.239H36.6336V40.3828Z" fill="#2C2C2C"/>
</svg>
