<svg width="51" height="46" viewBox="0 0 51 46" fill="none" xmlns="http://www.w3.org/2000/svg">
<rect x="0.757812" y="0.00500488" width="50.0347" height="45.0312" rx="8" fill="#F2F2F2"/>
<path d="M31.2268 11.3456C35.1974 11.3456 37.4389 13.5976 37.4506 17.5682V28.4725C37.4506 32.4419 35.1974 34.6951 31.2268 34.6951H20.3237C16.3531 34.6951 14.1011 32.4419 14.1011 28.4725L14.1011 17.5682C14.1011 13.5976 16.3531 11.3456 20.3237 11.3456L31.2268 11.3456ZM26.3596 16.1673C26.0315 15.9688 25.6346 15.9688 25.3205 16.1673C25.0041 16.3646 24.8302 16.7277 24.864 17.0896L24.864 28.9862C24.9236 29.4882 25.3427 29.8618 25.8331 29.8618C26.3362 29.8618 26.7554 29.4882 26.8021 28.9862L26.8021 17.0896C26.8488 16.7277 26.6748 16.3646 26.3596 16.1673ZM20.9075 19.9966C20.5922 19.7981 20.1941 19.7981 19.8801 19.9966C19.5637 20.1951 19.3897 20.5558 19.4248 20.9189L19.4248 28.9862C19.4703 29.4882 19.8906 29.8618 20.3926 29.8618C20.8958 29.8618 21.3149 29.4882 21.3616 28.9862L21.3616 20.9189C21.3978 20.5558 21.2215 20.1951 20.9075 19.9966ZM31.7171 24.2345C31.4031 24.0361 31.0061 24.0361 30.6793 24.2345C30.3629 24.433 30.1889 24.7821 30.2356 25.1568V28.9862C30.2823 29.4882 30.7014 29.8618 31.2046 29.8618C31.695 29.8618 32.1141 29.4882 32.1736 28.9862V25.1568C32.2075 24.7821 32.0335 24.433 31.7171 24.2345Z" fill="#2B2B36"/>
</svg>
