<svg width="16" height="16" viewBox="0 0 16 16" fill="none" xmlns="http://www.w3.org/2000/svg">
<path d="M8 2C4.68633 2 2 4.68633 2 8C2 11.3137 4.68633 14 8 14C11.3137 14 14 11.3137 14 8C14 4.68633 11.3137 2 8 2ZM8 3.579C8.91967 3.579 9.77333 3.86033 10.481 4.34067L4.341 10.4807C3.86033 9.77333 3.57933 8.91933 3.57933 7.99967C3.579 5.55833 5.55833 3.579 8 3.579ZM8 12.421C7.08033 12.421 6.22667 12.1397 5.519 11.6593L11.659 5.51933C12.1397 6.22667 12.4207 7.08067 12.4207 8.00033C12.421 10.4417 10.4417 12.421 8 12.421Z" fill="#F44336"/>
</svg>
