<svg width="473" height="316" viewBox="0 0 473 316" fill="none" xmlns="http://www.w3.org/2000/svg">
<path d="M473 0.00332642H0V315.337H473V0.00332642Z" fill="white"/>
<path d="M370.388 140.842C368.301 139.502 367.05 137.207 367.051 134.728C367.051 134.714 367.051 134.7 367.051 134.687C367.051 79.4623 308.601 34.6938 236.499 34.6938C164.398 34.6938 105.948 79.4623 105.948 134.687C105.948 136.039 105.993 137.384 106.062 138.723C82.2788 152.674 66.9365 174.644 66.9365 199.363C66.9365 241.524 111.56 275.703 166.606 275.703C180.904 275.703 194.496 273.396 206.787 269.243C226.038 262.738 246.96 262.738 266.211 269.243C278.502 273.397 292.095 275.703 306.392 275.703C361.438 275.703 406.062 241.524 406.062 199.363C406.062 175.862 392.194 154.845 370.388 140.842Z" fill="#DFF1F4"/>
<path d="M390.998 137.457H256.231C251.443 137.457 247.562 133.575 247.562 128.787V38.3416C247.562 35.1018 250.188 32.4757 253.427 32.4757H390.998C395.785 32.4757 399.667 36.3569 399.667 41.1449V128.788C399.668 133.575 395.786 137.457 390.998 137.457Z" fill="#68627A"/>
<path d="M331.232 49.978H261.809C260.275 49.978 259.031 48.7343 259.031 47.1999V42.5223C259.031 40.9878 260.275 39.7442 261.809 39.7442H331.232C332.767 39.7442 334.011 40.9878 334.011 42.5223V47.1999C334.011 48.7337 332.767 49.978 331.232 49.978Z" fill="white"/>
<path d="M259.031 55.3096H389.369" stroke="white" stroke-width="0.630667" stroke-miterlimit="10"/>
<path d="M259.031 74.2271H389.369" stroke="white" stroke-width="0.630667" stroke-miterlimit="10"/>
<path d="M259.031 92.4181H389.369" stroke="white" stroke-width="0.630667" stroke-miterlimit="10"/>
<path d="M259.031 110.608H389.369" stroke="white" stroke-width="0.630667" stroke-miterlimit="10"/>
<path d="M275.148 60.6981V124.137" stroke="white" stroke-width="0.630667" stroke-miterlimit="10"/>
<path d="M294.769 60.6981V124.137" stroke="white" stroke-width="0.630667" stroke-miterlimit="10"/>
<path d="M314.39 60.6981V124.137" stroke="white" stroke-width="0.630667" stroke-miterlimit="10"/>
<path d="M353.631 60.6981V124.137" stroke="white" stroke-width="0.630667" stroke-miterlimit="10"/>
<path d="M373.252 60.6981V124.137" stroke="white" stroke-width="0.630667" stroke-miterlimit="10"/>
<path d="M309.003 83.9602C309.003 86.3486 307.067 88.2847 304.679 88.2847C302.291 88.2847 300.354 86.3486 300.354 83.9602C300.354 81.5719 302.291 79.6357 304.679 79.6357C307.067 79.6357 309.003 81.5719 309.003 83.9602Z" fill="white"/>
<path d="M387.089 66.3955C387.089 68.7838 385.153 70.72 382.765 70.72C380.377 70.72 378.44 68.7838 378.44 66.3955C378.44 64.0072 380.377 62.071 382.765 62.071C385.153 62.071 387.089 64.0072 387.089 66.3955Z" fill="white"/>
<path d="M271.163 119.073C271.163 121.461 269.227 123.397 266.838 123.397C264.45 123.397 262.514 121.461 262.514 119.073C262.514 116.684 264.45 114.748 266.838 114.748C269.227 114.748 271.163 116.684 271.163 119.073Z" fill="white"/>
<path d="M328.524 66.3955C328.524 68.7838 326.588 70.72 324.2 70.72C321.812 70.72 319.875 68.7838 319.875 66.3955C319.875 64.0072 321.812 62.071 324.2 62.071C326.588 62.071 328.524 64.0072 328.524 66.3955Z" fill="#E71C2E"/>
<path d="M184.43 167.051C184.443 165.98 185.163 165.035 186.191 164.74C211.572 157.471 230.201 134.058 230.201 106.374V64.4303H108.798V106.374C108.798 134.058 127.427 157.471 152.808 164.74C153.836 165.035 154.557 165.98 154.569 167.051C154.57 167.151 154.571 167.251 154.571 167.351C154.571 167.358 154.571 167.364 154.571 167.37C154.57 168.442 153.843 169.39 152.813 169.685C127.43 176.952 108.798 200.366 108.798 228.052V269.997H230.202V228.052C230.202 200.367 211.571 176.953 186.188 169.685C185.157 169.39 184.43 168.442 184.429 167.37C184.429 167.363 184.429 167.357 184.429 167.351C184.429 167.251 184.429 167.151 184.43 167.051Z" fill="white"/>
<path d="M169.5 162.03C138.811 162.03 113.843 137.063 113.843 106.374V69.4756H225.157V106.374C225.156 137.064 200.188 162.03 169.5 162.03Z" fill="#D0EFF4"/>
<path d="M113.843 90.0064L225.156 80.1844V69.4756H113.843V90.0064Z" fill="#C0E6ED"/>
<path d="M113.843 264.951V228.053C113.843 197.364 138.81 172.397 169.499 172.397C200.188 172.397 225.155 197.364 225.155 228.053V264.951H113.843Z" fill="#D0EFF4"/>
<path d="M113.843 264.951V255.872C113.843 225.184 138.81 200.217 169.499 200.217C200.188 200.217 225.155 225.184 225.155 255.872V264.951H113.843Z" fill="#FB7F63"/>
<path d="M113.843 264.951H225.156V255.872C225.156 251.941 224.744 248.106 223.965 244.403L113.843 258.054L113.843 264.951Z" fill="#F29538"/>
<path d="M100.392 280.871H238.607V260.632H100.392V280.871Z" fill="#83A9FF"/>
<path d="M169.5 162.03C187.994 162.03 204.407 152.961 214.533 139.039C188.753 137.219 148.119 154.298 114.535 115.138C118.751 141.678 141.792 162.03 169.5 162.03Z" fill="#FC7F65"/>
<path d="M114.535 115.138C140.023 129.574 201.836 124.151 214.533 139.039C214.533 139.039 154.288 171.29 114.535 115.138Z" fill="#F29538"/>
<path d="M134.601 131.256L207.866 83.9602" stroke="white" stroke-width="0.630667" stroke-miterlimit="10"/>
<path d="M167.75 119.643L207.866 93.0393" stroke="white" stroke-width="0.630667" stroke-miterlimit="10"/>
<path d="M156.559 225.424L201.532 196.286" stroke="white" stroke-width="0.630667" stroke-miterlimit="10"/>
<path d="M138.401 246.749L201.532 205.365" stroke="white" stroke-width="0.630667" stroke-miterlimit="10"/>
<path d="M173.525 184.333C173.525 160.882 177.101 161.376 177.101 161.376L170.439 156.837V155.556L169.499 156.196L168.56 155.556V156.837L161.898 161.376C161.898 161.376 165.473 160.882 165.473 184.333C165.473 200.752 160.562 202.177 159.305 202.272H168.559H170.438H179.693C178.437 202.176 173.525 200.752 173.525 184.333Z" fill="#FFC154"/>
<path d="M179.985 202.272H179.693C179.878 202.286 179.985 202.272 179.985 202.272Z" fill="#FFC154"/>
<path d="M238.607 53.5564H100.392V73.7951H238.607V53.5564Z" fill="#37315B"/>
<path d="M435.388 280.871H37.6123V282.864H435.388V280.871Z" fill="#3E5C70"/>
<path d="M387.676 208.838H215.171V249.499H387.676V208.838Z" fill="#322B57"/>
<path d="M387.677 208.838H332.558V280.752H387.677V208.838Z" fill="#ECEBEC"/>
<path d="M224.721 208.838H215.171V282.002H224.721V208.838Z" fill="#1B7BBC"/>
<path d="M387.676 208.838H215.171V217.034H387.676V208.838Z" fill="#1B7BBC"/>
<path d="M381.712 220.771H338.521V236.394H381.712V220.771Z" stroke="#1B66AA" stroke-width="0.630667" stroke-miterlimit="10"/>
<path d="M366.253 222.804H353.982V224.509H366.253V222.804Z" fill="#1B66AA"/>
<path d="M381.712 240.789H338.521V256.412H381.712V240.789Z" stroke="#1B66AA" stroke-width="0.630667" stroke-miterlimit="10"/>
<path d="M381.712 260.807H338.521V276.43H381.712V260.807Z" stroke="#1B66AA" stroke-width="0.630667" stroke-miterlimit="10"/>
<path d="M366.253 262.839H353.982V264.545H366.253V262.839Z" fill="#1B66AA"/>
<path d="M231.727 190.382C232.562 196.596 238.277 200.956 244.491 200.12C243.656 193.906 237.941 189.546 231.727 190.382Z" fill="#165A7F"/>
<path d="M238.572 185.313C236.044 191.051 238.647 197.751 244.385 200.279C246.912 194.541 244.31 187.84 238.572 185.313Z" fill="#1C77B5"/>
<path d="M256.691 190.382C255.856 196.596 250.141 200.956 243.927 200.12C244.763 193.906 250.477 189.546 256.691 190.382Z" fill="#1C77B5"/>
<path d="M249.847 185.313C252.375 191.051 249.772 197.751 244.034 200.279C241.506 194.541 244.109 187.84 249.847 185.313Z" fill="#165A7F"/>
<path d="M248.001 208.838H239.496L238.206 199.042H249.291L248.001 208.838Z" fill="#83A9FF"/>
<path d="M267.3 206.662L311.086 206.656L301.943 175.869H258.202L267.3 206.662Z" fill="#83A9FF"/>
<path d="M308.787 204.941L300.663 177.584H260.498L268.582 204.947L308.787 204.941Z" fill="#D0EFF4"/>
<path d="M277.319 198.764C281.293 198.764 284.515 195.542 284.515 191.568C284.515 187.595 281.293 184.373 277.319 184.373C273.345 184.373 270.124 187.595 270.124 191.568C270.124 195.542 273.345 198.764 277.319 198.764Z" fill="#83A9FF"/>
<path d="M300.638 184.846H286.133L286.53 186.343H301.035L300.638 184.846Z" fill="#1B7BBC"/>
<path d="M301.339 188.207H286.833L287.231 189.704H301.736L301.339 188.207Z" fill="#1B7BBC"/>
<path d="M302.04 191.568H287.534L287.932 193.066H302.437L302.04 191.568Z" fill="#1B7BBC"/>
<path d="M302.74 194.93H288.235L288.632 196.427H303.138L302.74 194.93Z" fill="#1B7BBC"/>
<path d="M344.083 192.317V202.109" stroke="#1B7BBC" stroke-width="0.315333" stroke-miterlimit="10"/>
<path d="M344.084 203.229C344.819 203.229 345.415 202.633 345.415 201.898C345.415 201.163 344.819 200.567 344.084 200.567C343.348 200.567 342.752 201.163 342.752 201.898C342.752 202.633 343.348 203.229 344.084 203.229Z" fill="#1B7BBC"/>
<path d="M348.043 203.229C348.778 203.229 349.374 202.633 349.374 201.898C349.374 201.163 348.778 200.567 348.043 200.567C347.307 200.567 346.711 201.163 346.711 201.898C346.711 202.633 347.307 203.229 348.043 203.229Z" fill="#1B7BBC"/>
<path d="M352.002 203.229C352.738 203.229 353.334 202.633 353.334 201.898C353.334 201.163 352.738 200.567 352.002 200.567C351.267 200.567 350.671 201.163 350.671 201.898C350.671 202.633 351.267 203.229 352.002 203.229Z" fill="#1B7BBC"/>
<path d="M357.293 201.898C357.293 202.633 356.697 203.229 355.962 203.229C355.226 203.229 354.63 202.633 354.63 201.898C354.63 201.163 355.226 200.567 355.962 200.567C356.697 200.567 357.293 201.163 357.293 201.898Z" fill="#1B7BBC"/>
<path d="M359.92 192.317V202.109" stroke="#1B7BBC" stroke-width="0.315333" stroke-miterlimit="10"/>
<path d="M359.92 203.229C360.655 203.229 361.252 202.633 361.252 201.898C361.252 201.163 360.655 200.567 359.92 200.567C359.185 200.567 358.589 201.163 358.589 201.898C358.589 202.633 359.185 203.229 359.92 203.229Z" fill="#1B7BBC"/>
<path d="M363.879 192.317V202.109" stroke="#1B7BBC" stroke-width="0.315333" stroke-miterlimit="10"/>
<path d="M363.88 203.229C364.615 203.229 365.211 202.633 365.211 201.898C365.211 201.163 364.615 200.567 363.88 200.567C363.144 200.567 362.548 201.163 362.548 201.898C362.548 202.633 363.144 203.229 363.88 203.229Z" fill="#1B7BBC"/>
<path d="M337.064 189.704V208.838H341.072V193.396H366.892V208.838H370.9V189.704H337.064Z" fill="#1B66AA"/>
<path d="M150.285 158.068L150.177 157.731C150.177 157.731 154.538 156.395 157.424 158.276C157.584 159.116 157.673 160.109 157.659 161.074C156.707 160.502 153.778 158.996 150.262 159.641L150.242 159.37C150.242 159.37 154.623 158.011 157.576 160.56L157.48 158.632C157.48 158.632 154.323 156.726 150.285 158.068Z" fill="#D88D87"/>
<path d="M94.4727 184.529V280.753" stroke="#284159" stroke-width="8.19867" stroke-miterlimit="10"/>
<path d="M100.385 265.817L100.33 272.042C100.33 272.042 108.123 272.152 110.052 280.871L88.6333 280.852L88.9758 265.717L100.385 265.817Z" fill="#FF8B0D"/>
<path d="M94.7058 272.382C94.7317 273.733 93.9024 274.844 92.8536 274.864C91.8048 274.884 90.9332 273.805 90.9073 272.454C90.8815 271.104 91.7108 269.992 92.7596 269.973C93.8084 269.953 94.68 271.032 94.7058 272.382Z" fill="#19283B"/>
<path d="M81.2266 184.529V280.753" stroke="#284159" stroke-width="8.19867" stroke-miterlimit="10"/>
<path d="M87.1386 265.817L87.0837 272.042C87.0837 272.042 94.8762 272.152 96.8054 280.871L75.3867 280.852L75.7292 265.717L87.1386 265.817Z" fill="#ECB220"/>
<path d="M104.267 176.304C101.273 177.761 95.753 179.971 88.501 180.189C81.0699 180.413 75.3093 178.441 72.2241 177.132C73.3518 172.214 74.4788 167.298 75.6064 162.38L72.967 141.887C72.8308 136.642 75.3264 132.322 80.5842 132.186L90.8307 131.921C97.6097 131.746 101.134 134.113 101.309 140.876L100.141 162.463L104.267 176.304Z" fill="#0E5EA0"/>
<path d="M97.6663 131.558H99.6289V109.86H97.6663V131.558Z" fill="#875330"/>
<path d="M76.0418 131.558H78.0044V109.86H76.0418V131.558Z" fill="#875330"/>
<path d="M94.6325 112.021V123.601C94.6325 127.348 91.5876 130.386 87.8314 130.386C84.0751 130.386 81.0303 127.349 81.0303 123.601V112.021" fill="#D88D87"/>
<path d="M87.8313 127.588C90.6428 127.588 98.9367 124.266 98.9367 117.514L100.086 104.811C100.086 98.3381 94.826 93.091 88.3371 93.091H87.3249C80.8366 93.091 75.5762 98.3381 75.5762 104.811L76.7252 117.514C76.7259 124.266 83.8322 127.588 87.8313 127.588Z" fill="#FFB692"/>
<path d="M85.3513 124.315C85.2983 124.961 86.5092 125.587 88.0568 125.714C89.6045 125.841 90.9018 125.42 90.9554 124.774C91.0084 124.127 89.7968 123.501 88.2498 123.374C86.7022 123.247 85.4043 123.668 85.3513 124.315Z" fill="#D88D87"/>
<path d="M86.81 90.5254H88.8521C96.2814 90.5254 102.304 96.5332 102.304 103.944V106.434H88.8086L86.5603 104.191V106.434H86.3787L78.7659 98.8401V106.434H73.3579V103.944C73.3579 96.5332 79.3808 90.5254 86.81 90.5254Z" fill="#54321A"/>
<path d="M77.626 94.1442C77.9066 93.8825 78.1986 93.6334 78.5007 93.3956L83.7207 98.603V95.5336L90.2242 102.021H102.165C102.219 102.399 102.258 102.781 102.28 103.168H89.7474L84.8698 98.3016V101.371L77.626 94.1442Z" fill="#875330"/>
<path d="M143.895 176.339L100.109 176.333L109.253 145.546H152.993L143.895 176.339Z" fill="#165A7F"/>
<path d="M143.892 176.328H100.111V178.515H143.892V176.328Z" fill="#1B7BBC"/>
<path d="M109.253 145.546H107.591L98.3179 176.427L100.111 176.328L109.253 145.546Z" fill="#83A9FF"/>
<path d="M132.806 164.04C132.021 166.452 129.71 167.862 127.646 167.189C125.581 166.517 124.544 164.018 125.329 161.606C126.114 159.195 128.424 157.785 130.489 158.457C132.553 159.129 133.59 161.629 132.806 164.04Z" fill="#1B7BBC"/>
<path d="M70.0087 146.512C57.0586 165.927 72.2305 187.065 95.3451 180.374" stroke="#FFB692" stroke-width="6.30667" stroke-miterlimit="10"/>
<path d="M74.3917 152.414L80.6019 142.051C82.2025 139.058 81.073 135.334 78.0805 133.734C75.088 132.134 71.3645 133.263 69.7639 136.256L63.5537 146.619L74.3917 152.414Z" fill="#1B7BBC"/>
<path d="M91.3208 180.826C88.5175 177.273 94.3341 174.193 94.3341 174.193L96.1946 169.989C96.1946 169.989 99.8663 171.809 97.4282 175.114C97.4282 175.114 101.459 174.417 103.577 172.209C106.163 169.515 108.006 178.128 106.31 181.519C105.39 183.361 102.415 182.625 100.164 183.943C97.0296 185.779 91.7427 186.083 91.3208 180.826Z" fill="#FFB692"/>
<path d="M164.709 96.5931H134.255C131.44 96.5931 129.157 98.8755 129.157 101.691V127.015C129.157 129.831 131.44 132.113 134.255 132.113H135.774V135.896L139.558 132.113H164.708C167.523 132.113 169.806 129.831 169.806 127.015V101.691C169.807 98.8755 167.524 96.5931 164.709 96.5931Z" fill="white"/>
<path d="M149.482 107.241C145.408 107.241 142.092 110.555 142.092 114.63C142.092 118.705 145.408 122.02 149.482 122.02C153.557 122.02 156.872 118.705 156.872 114.63C156.872 110.556 153.557 107.241 149.482 107.241ZM149.482 120.395C146.303 120.395 143.718 117.809 143.718 114.63C143.718 111.452 146.304 108.866 149.482 108.866C152.661 108.866 155.247 111.452 155.247 114.63C155.247 117.809 152.661 120.395 149.482 120.395Z" fill="#83A9FF"/>
<path d="M153.134 112.367L148.275 117.226L146.816 115.766L146.37 116.212L148.275 118.118L153.58 112.813L153.134 112.367Z" fill="#83A9FF"/>
<path d="M352.072 184.639C376.763 176.02 385.417 158.039 376.733 136.183" stroke="#A56F62" stroke-width="5.676" stroke-miterlimit="10"/>
<path d="M356.969 182.573C356.236 178.177 350.139 180.377 350.139 180.377L345.843 178.949C345.843 178.949 344.737 182.83 348.761 183.242C348.761 183.242 343.828 186.118 343.289 188.535C343.036 189.669 345.334 193.554 347.39 194.838C347.826 195.111 348.396 194.971 348.657 194.528C349.283 193.465 350.739 191.472 353.189 190.705C356.603 189.635 360.522 186.362 356.969 182.573Z" fill="#A56F62"/>
<path d="M381.947 183.799V280.752" stroke="#284159" stroke-width="8.19867" stroke-miterlimit="10"/>
<path d="M376.005 265.703L376.06 271.975C376.06 271.975 368.227 272.086 366.288 280.871L387.816 280.852L387.472 265.602L376.005 265.703Z" fill="#FF8B0D"/>
<path d="M381.713 272.318C381.687 273.679 382.52 274.798 383.575 274.818C384.629 274.838 385.505 273.752 385.531 272.391C385.557 271.03 384.724 269.91 383.669 269.89C382.615 269.87 381.739 270.957 381.713 272.318Z" fill="#19283B"/>
<path d="M375.044 172.226C375.038 173.421 375.711 174.524 376.789 175.039C379.176 176.18 382.642 177.429 386.945 177.731C393.002 178.156 397.867 176.505 400.771 175.168C401.866 174.665 402.561 173.565 402.568 172.361C402.626 161.499 402.684 151.546 402.742 140.749C402.776 134.513 397.747 129.429 391.511 129.397L385.822 129.366C379.999 129.335 375.253 134.031 375.222 139.854L375.044 172.226Z" fill="#0E5EA0"/>
<path d="M395.261 183.799V280.752" stroke="#284159" stroke-width="8.19867" stroke-miterlimit="10"/>
<path d="M389.319 265.703L389.374 271.975C389.374 271.975 381.541 272.086 379.602 280.871L401.13 280.852L400.786 265.602L389.319 265.703Z" fill="#ECB220"/>
<path d="M395.027 272.318C395.001 273.679 395.834 274.798 396.889 274.818C397.943 274.838 398.819 273.752 398.845 272.391C398.871 271.03 398.038 269.91 396.983 269.89C395.929 269.87 395.053 270.957 395.027 272.318Z" fill="#19283B"/>
<path d="M394.014 143.173C353.507 164.807 339.993 128.838 339.993 128.838" stroke="#A56F62" stroke-width="5.676" stroke-miterlimit="10"/>
<path d="M343.406 129.626C347.347 127.401 343.133 122.346 343.133 122.346L343.004 117.752C343.004 117.752 338.917 118.044 339.92 122.027C339.92 122.027 336.454 119.853 335.331 117.007C333.96 113.533 328.989 120.804 329.272 124.586C329.426 126.64 332.458 127.086 334.041 129.159C336.246 132.045 341.023 134.33 343.406 129.626Z" fill="#A56F62"/>
<path d="M382.765 144.387L391.722 138.292C394.319 136.705 397.711 137.523 399.298 140.12C400.886 142.718 400.067 146.109 397.47 147.696L388.513 153.791L382.765 144.387Z" fill="#1B7BBC"/>
<path d="M388.093 82.9934C389.112 82.9934 390.025 84.3209 391.006 84.4603C392.011 84.6035 393.259 83.5881 394.213 83.8681C395.184 84.1525 395.686 85.6838 396.593 86.0988C397.51 86.5182 398.996 85.8982 399.837 86.4393C400.683 86.9842 400.733 88.5943 401.49 89.2515C402.248 89.9093 403.85 89.7308 404.508 90.4901C405.164 91.2475 404.761 92.8066 405.306 93.6523C405.848 94.493 407.434 94.7711 407.854 95.6887C408.269 96.5956 407.443 97.9774 407.728 98.948C408.007 99.9022 409.451 100.618 409.595 101.623C409.735 102.603 408.551 103.694 408.551 104.714C408.551 105.733 409.734 106.824 409.595 107.805C409.451 108.81 408.008 109.526 407.728 110.48C407.443 111.45 408.269 112.832 407.854 113.739C407.435 114.656 405.848 114.934 405.306 115.775C404.761 116.622 405.164 118.181 404.508 118.938C403.85 119.696 402.248 119.518 401.49 120.176C400.732 120.832 400.683 122.443 399.837 122.987C398.996 123.529 397.51 122.908 396.593 123.328C395.686 123.743 395.184 125.274 394.214 125.558C393.26 125.838 392.011 124.822 391.006 124.966C390.026 125.106 389.112 126.432 388.093 126.432C387.074 126.432 386.16 125.105 385.179 124.966C384.174 124.822 382.926 125.838 381.972 125.558C381.001 125.273 380.499 123.742 379.592 123.327C378.675 122.908 377.189 123.528 376.348 122.986C375.502 122.442 375.452 120.831 374.695 120.174C373.936 119.517 372.335 119.695 371.677 118.936C371.02 118.178 371.423 116.619 370.878 115.774C370.337 114.933 368.75 114.655 368.331 113.737C367.916 112.83 368.742 111.448 368.457 110.478C368.178 109.524 366.734 108.808 366.591 107.803C366.451 106.822 367.634 105.731 367.634 104.712C367.634 103.692 366.451 102.601 366.591 101.62C366.734 100.615 368.177 99.899 368.457 98.9448C368.742 97.9742 367.916 96.5924 368.331 95.6855C368.75 94.7686 370.337 94.4904 370.879 93.6491C371.424 92.8028 371.021 91.2438 371.678 90.487C372.335 89.7283 373.937 89.9067 374.695 89.249C375.453 88.5924 375.503 86.9817 376.348 86.4374C377.189 85.8957 378.675 86.5163 379.592 86.0969C380.499 85.6819 381.001 84.1507 381.971 83.8662C382.926 83.5868 384.174 84.6022 385.179 84.4584C386.16 84.3209 387.073 82.9934 388.093 82.9934Z" fill="#252538"/>
<path d="M387.716 128.623C393.919 128.623 398.948 123.594 398.948 117.391V106.728C398.948 100.781 394.127 95.9593 388.18 95.9593H387.252C381.305 95.9593 376.483 100.781 376.483 106.728V117.391C376.484 123.594 381.513 128.623 387.716 128.623Z" fill="#A56F62"/>
<path d="M386.241 95.6111H389.136C395.134 95.6111 399.996 100.474 399.996 106.472V107.294C399.996 107.381 399.993 107.466 399.986 107.55C399.855 109.178 397.395 109.027 397.395 107.395V106.998C397.395 104.114 395.057 101.777 392.173 101.777H383.205C380.321 101.777 377.983 104.114 377.983 106.998V107.395C377.983 109.027 375.523 109.178 375.391 107.55C375.384 107.466 375.381 107.38 375.381 107.294V106.472C375.381 100.474 380.243 95.6111 386.241 95.6111Z" fill="#252538"/>
<path d="M385.263 123.313C385.445 123.881 386.692 123.987 388.046 123.553C389.402 123.118 390.352 122.305 390.17 121.738C389.988 121.171 388.742 121.064 387.387 121.499C386.032 121.934 385.081 122.746 385.263 123.313Z" fill="#8C5C53"/>
<path d="M394.456 109.91C394.456 111.664 393.034 113.086 391.28 113.086C389.526 113.086 388.105 111.664 388.105 109.91C388.105 108.156 389.526 106.735 391.28 106.735C393.034 106.735 394.456 108.156 394.456 109.91Z" stroke="#EDCB3A" stroke-width="0.630667" stroke-miterlimit="10"/>
<path d="M384.65 109.91C384.65 111.664 383.228 113.086 381.474 113.086C379.72 113.086 378.299 111.664 378.299 109.91C378.299 108.156 379.72 106.735 381.474 106.735C383.228 106.735 384.65 108.156 384.65 109.91Z" stroke="#EDCB3A" stroke-width="0.630667" stroke-miterlimit="10"/>
<path d="M394.268 108.989H399.233" stroke="#EDCB3A" stroke-width="0.630667" stroke-miterlimit="10"/>
<path d="M383.709 107.656H389.044" stroke="#EDCB3A" stroke-width="0.630667" stroke-miterlimit="10"/>
</svg>
