<svg width="19" height="18" viewBox="0 0 19 18" fill="none" xmlns="http://www.w3.org/2000/svg">
<path d="M13.9442 13.5916L13.9625 13.6098L13.9826 13.6259L15.8999 15.1725L15.96 15.2211C16.0831 15.4164 16.0603 15.6797 15.8918 15.8499C15.7027 16.0409 15.4001 16.0439 15.2074 15.859L13.6284 14.0506L13.6284 14.0505L13.6258 14.0476L13.5771 13.9927C13.5385 13.9401 13.5169 13.8755 13.5169 13.8081C13.5169 13.7256 13.5492 13.6475 13.6052 13.5904C13.7002 13.4973 13.8496 13.4977 13.9442 13.5916ZM7.96553 1.99614C9.53859 1.99614 11.0482 2.62727 12.1621 3.75233C13.2761 4.87757 13.9029 6.40477 13.9029 7.99823C13.9029 11.3178 11.2399 14.0003 7.96553 14.0003C4.69113 14.0003 2.02818 11.3178 2.02818 7.99823C2.02818 4.67863 4.69113 1.99614 7.96553 1.99614Z" stroke="#AEAEAE" stroke-width="1.00069"/>
</svg>
