<svg width="3002" height="2812" viewBox="0 0 3002 2812" fill="none" xmlns="http://www.w3.org/2000/svg">
<path d="M1945.26 1918.96C1885.53 1988.64 1814.19 2043.39 1731.24 2083.2C1649.94 2121.36 1562.01 2140.44 1467.44 2140.44C1354.62 2140.44 1250.1 2112.24 1153.88 2055.83C1057.65 1999.42 981.332 1923.1 924.923 1826.88C868.515 1730.65 840.31 1626.13 840.31 1513.31C840.31 1400.49 868.515 1295.97 924.923 1199.75C981.332 1103.52 1057.65 1027.2 1153.88 970.793C1250.1 914.385 1354.62 886.18 1467.44 886.18C1562.01 886.18 1649.94 906.089 1731.24 945.907C1814.19 984.066 1885.53 1037.99 1945.26 1107.67L1793.45 1194.77C1751.97 1151.63 1703.03 1118.45 1646.62 1095.22C1590.21 1070.34 1530.49 1057.89 1467.44 1057.89C1384.49 1057.89 1308.17 1078.63 1238.49 1120.11C1168.81 1159.93 1113.23 1214.68 1071.75 1284.36C1030.27 1354.04 1009.54 1430.36 1009.54 1513.31C1009.54 1596.27 1030.27 1672.58 1071.75 1742.26C1113.23 1811.95 1168.81 1867.52 1238.49 1909C1308.17 1948.82 1384.49 1968.73 1467.44 1968.73C1530.49 1968.73 1590.21 1957.11 1646.62 1933.89C1703.03 1909 1751.97 1874.99 1793.45 1831.85L1945.26 1918.96Z" fill="#006868"/>
<path d="M1528.11 1180.41V1232.54L1551.28 1263.43L1506.88 1298.18L1461.51 1285.63L1421.93 1250.88L1370.76 1298.18L1393.93 1411.13L1469.23 1460.36H1557.07L1640.09 1514.42L1645.88 1460.36H1717.32L1726.97 1514.42L1746.28 1570.41L1696.08 1620.6L1688.36 1645.7L1734.69 1722.93L1741.45 1732.58" stroke="#006868" stroke-width="19.3066"/>
<path d="M1393.93 1688.18C1422.57 1716.17 1499.54 1757.1 1578.31 1696.86" stroke="#006868" stroke-width="19.3066"/>
<circle cx="1147.44" cy="1527.85" r="97.4447" fill="#E6F9F9" fill-opacity="0.4"/>
<path d="M1258 1527.4C1258 1588.71 1208.3 1638.4 1147 1638.4C1085.7 1638.4 1036 1588.71 1036 1527.4C1036 1466.1 1085.7 1416.4 1147 1416.4C1208.3 1416.4 1258 1466.1 1258 1527.4ZM1049.39 1527.4C1049.39 1581.31 1093.09 1625.01 1147 1625.01C1200.91 1625.01 1244.61 1581.31 1244.61 1527.4C1244.61 1473.49 1200.91 1429.79 1147 1429.79C1093.09 1429.79 1049.39 1473.49 1049.39 1527.4Z" fill="#006868"/>
<path d="M1180.68 1333.43C1220.06 1267.89 1281.49 1217.57 1354.97 1190.64C1428.46 1163.72 1509.68 1161.78 1585.44 1185.14C1661.19 1208.5 1727.04 1255.78 1772.26 1319.3C1817.49 1382.83 1839.44 1458.85 1834.55 1535.03C1829.66 1611.21 1798.21 1683.07 1745.32 1738.91C1692.43 1794.76 1621.2 1831.32 1543.22 1842.65C1465.23 1853.98 1385.07 1839.41 1315.76 1801.32C1246.45 1763.22 1192.07 1703.84 1161.45 1632.82L1169.35 1629.76C1199.22 1699.05 1252.27 1756.98 1319.89 1794.14C1387.5 1831.31 1465.71 1845.52 1541.79 1834.46C1617.87 1823.41 1687.35 1787.75 1738.95 1733.26C1790.55 1678.78 1821.23 1608.68 1826 1534.37C1830.77 1460.05 1809.36 1385.87 1765.24 1323.9C1721.12 1261.93 1656.88 1215.8 1582.98 1193.02C1509.07 1170.23 1429.83 1172.12 1358.14 1198.39C1286.45 1224.65 1226.53 1273.75 1188.1 1337.69L1180.68 1333.43Z" fill="#006868" stroke="#006868" stroke-width="11.5839"/>
<path d="M1488.9 1617.35C1483.82 1617.35 1478.87 1615.85 1474.65 1613.03C1470.43 1610.22 1467.15 1606.21 1465.21 1601.53C1463.27 1596.84 1462.76 1591.68 1463.75 1586.71C1464.74 1581.74 1467.18 1577.17 1470.76 1573.58C1474.35 1570 1478.92 1567.55 1483.89 1566.56C1488.87 1565.57 1494.02 1566.08 1498.71 1568.02C1503.39 1569.96 1507.4 1573.25 1510.22 1577.47C1513.03 1581.68 1514.54 1586.64 1514.54 1591.71C1514.53 1598.51 1511.82 1605.03 1507.02 1609.84C1502.21 1614.64 1495.69 1617.35 1488.9 1617.35ZM1488.9 1576.33C1485.85 1576.33 1482.88 1577.23 1480.35 1578.92C1477.82 1580.61 1475.85 1583.01 1474.68 1585.83C1473.52 1588.64 1473.21 1591.73 1473.81 1594.71C1474.4 1597.7 1475.87 1600.44 1478.02 1602.59C1480.17 1604.74 1482.91 1606.21 1485.89 1606.8C1488.88 1607.4 1491.97 1607.09 1494.78 1605.93C1497.59 1604.76 1500 1602.79 1501.69 1600.26C1503.38 1597.73 1504.28 1594.76 1504.28 1591.71C1504.28 1587.63 1502.65 1583.72 1499.77 1580.84C1496.89 1577.95 1492.97 1576.33 1488.9 1576.33Z" fill="#006868"/>
<path d="M1488.89 1678.89L1445.63 1627.87C1445.03 1627.1 1444.44 1626.33 1443.85 1625.55C1436.46 1615.82 1432.47 1603.93 1432.48 1591.71C1432.48 1576.75 1438.43 1562.4 1449.01 1551.82C1459.59 1541.24 1473.93 1535.29 1488.89 1535.29C1503.86 1535.29 1518.2 1541.24 1528.78 1551.82C1539.36 1562.4 1545.31 1576.75 1545.31 1591.71C1545.32 1603.92 1541.33 1615.81 1533.95 1625.54L1533.94 1625.55C1533.94 1625.55 1532.4 1627.57 1532.17 1627.85L1488.89 1678.89ZM1452.04 1619.37C1452.04 1619.37 1453.23 1620.95 1453.5 1621.29L1488.89 1663.03L1524.33 1621.24C1524.56 1620.95 1525.76 1619.36 1525.76 1619.36C1531.8 1611.4 1535.06 1601.69 1535.05 1591.71C1535.05 1579.47 1530.19 1567.73 1521.53 1559.07C1512.88 1550.41 1501.14 1545.55 1488.89 1545.55C1476.65 1545.55 1464.91 1550.41 1456.26 1559.07C1447.6 1567.73 1442.74 1579.47 1442.74 1591.71C1442.73 1601.7 1446 1611.42 1452.04 1619.37Z" fill="#006868"/>
<path d="M1439.75 625.177C1245.41 625.177 1056.61 689.929 903.179 809.204C749.748 928.479 640.432 1095.48 592.502 1283.81C544.572 1472.15 560.761 1671.08 638.51 1849.19C716.26 2027.3 851.137 2174.43 1021.83 2267.33C1192.53 2360.22 1389.32 2393.6 1581.1 2362.18C1772.88 2330.76 1948.73 2236.33 2080.85 2093.82C2212.98 1951.31 2293.86 1768.83 2310.71 1575.23C2327.56 1381.62 2279.42 1187.92 2173.9 1024.72L2121.66 1058.5C2219.68 1210.08 2264.39 1390 2248.74 1569.83C2233.09 1749.67 2157.97 1919.16 2035.24 2051.53C1912.51 2183.9 1749.18 2271.61 1571.04 2300.79C1392.9 2329.98 1210.12 2298.98 1051.57 2212.69C893.017 2126.4 767.736 1989.74 695.518 1824.31C623.3 1658.87 608.264 1474.09 652.783 1299.15C697.303 1124.22 798.841 969.102 941.356 858.313C1083.87 747.525 1259.24 687.379 1439.75 687.379L1439.75 625.177Z" fill="#006868"/>
<circle cx="2138.62" cy="1031.98" r="67.7323" fill="#006868"/>
<circle cx="1449.94" cy="659.692" r="67.7323" fill="#006868"/>
<path d="M346 1500.35C346 1760.36 438.629 2011.87 607.275 2209.77C775.922 2407.67 1009.55 2539.02 1266.27 2580.25C1522.99 2621.49 1786.01 2569.93 2008.15 2434.8C2230.29 2299.68 2397.03 2089.84 2478.47 1842.91C2559.9 1595.98 2550.7 1328.11 2452.52 1087.35C2354.34 846.588 2173.6 648.678 1942.71 529.111C1711.82 409.544 1445.89 376.141 1192.6 434.894C939.316 493.646 715.245 640.71 560.571 849.713L618.142 892.318C762.687 697.002 972.086 559.568 1208.79 504.663C1445.49 449.758 1694.01 480.973 1909.77 592.71C2125.54 704.448 2294.45 889.398 2386.2 1114.39C2477.95 1339.39 2486.55 1589.71 2410.45 1820.47C2334.35 2051.24 2178.53 2247.34 1970.93 2373.61C1763.33 2499.89 1517.54 2548.08 1277.63 2509.54C1037.72 2471 819.391 2348.26 661.788 2163.32C504.185 1978.37 417.622 1743.34 417.622 1500.35L346 1500.35Z" fill="#006868"/>
<circle cx="591.503" cy="873.905" r="71.4986" fill="#006868"/>
<circle cx="384.499" cy="1492.9" r="71.4986" fill="#006868"/>
</svg>
