<svg width="13120" height="3492" viewBox="0 0 13120 3492" fill="none" xmlns="http://www.w3.org/2000/svg">
<rect width="13120" height="3492" fill="white"/>
<path d="M4033.09 2481.46C3920.13 2481.46 3814.64 2453.22 3716.63 2396.74C3620.28 2340.26 3543.87 2263.84 3487.39 2167.5C3430.91 2069.49 3402.67 1964 3402.67 1851.04C3402.67 1736.42 3430.91 1630.94 3487.39 1534.59C3543.87 1436.58 3620.28 1359.33 3716.63 1302.85C3814.64 1244.71 3920.13 1215.64 4033.09 1215.64C4147.71 1215.64 4253.19 1244.71 4349.54 1302.85C4447.55 1359.33 4524.8 1436.58 4581.28 1534.59C4639.42 1630.94 4668.49 1736.42 4668.49 1851.04C4668.49 1964 4639.42 2069.49 4581.28 2167.5C4524.8 2263.84 4447.55 2340.26 4349.54 2396.74C4253.19 2453.22 4147.71 2481.46 4033.09 2481.46ZM4033.09 2314.51C4117.81 2314.51 4195.05 2293.75 4264.82 2252.22C4336.25 2210.69 4392.73 2154.21 4434.26 2082.78C4475.79 2011.35 4496.56 1934.1 4496.56 1851.04C4496.56 1766.32 4475.79 1688.25 4434.26 1616.82C4392.73 1545.39 4336.25 1488.91 4264.82 1447.38C4195.05 1405.85 4117.81 1385.08 4033.09 1385.08C3950.03 1385.08 3872.78 1405.85 3801.35 1447.38C3731.58 1488.91 3675.93 1545.39 3634.4 1616.82C3592.88 1688.25 3572.11 1766.32 3572.11 1851.04C3572.11 1934.1 3592.88 2011.35 3634.4 2082.78C3675.93 2154.21 3731.58 2210.69 3801.35 2252.22C3872.78 2293.75 3950.03 2314.51 4033.09 2314.51ZM5385.84 1223.12C5475.55 1223.12 5557.78 1245.54 5632.53 1290.39C5708.94 1333.59 5769.58 1393.39 5814.43 1469.8C5859.28 1544.55 5881.71 1626.78 5881.71 1716.49V2469H5709.77V1716.49C5709.77 1658.35 5694.82 1605.19 5664.92 1557.01C5636.68 1507.18 5597.64 1468.14 5547.81 1439.9C5497.97 1410 5443.98 1395.05 5385.84 1395.05C5327.7 1395.05 5273.71 1410 5223.88 1439.9C5174.04 1468.14 5134.18 1507.18 5104.27 1557.01C5076.03 1605.19 5061.91 1658.35 5061.91 1716.49V2469H4892.47V1255.51H5061.91V1365.15C5103.44 1318.63 5151.62 1283.75 5206.44 1260.49C5262.92 1235.58 5322.72 1223.12 5385.84 1223.12ZM7345.13 2469H7178.18V2237.27C7056.92 2400.06 6901.6 2481.46 6712.22 2481.46C6597.6 2481.46 6492.12 2453.22 6395.77 2396.74C6299.42 2340.26 6223.01 2263.84 6166.53 2167.5C6110.05 2069.49 6081.81 1964 6081.81 1851.04C6081.81 1738.08 6110.05 1633.43 6166.53 1537.08C6223.01 1439.07 6299.42 1361.83 6395.77 1305.35C6492.12 1248.87 6597.6 1220.63 6712.22 1220.63C6908.24 1220.63 7063.56 1297.87 7178.18 1452.36V814.467H7345.13V2469ZM7173.2 1851.04C7173.2 1767.98 7152.43 1691.57 7110.9 1621.8C7069.38 1552.03 7012.9 1496.38 6941.46 1454.85C6871.7 1413.32 6795.28 1392.56 6712.22 1392.56C6629.16 1392.56 6552.75 1413.32 6482.98 1454.85C6413.21 1496.38 6357.56 1552.03 6316.03 1621.8C6274.5 1691.57 6253.74 1767.98 6253.74 1851.04C6253.74 1934.1 6274.5 2011.35 6316.03 2082.78C6357.56 2152.55 6413.21 2208.2 6482.98 2249.72C6552.75 2291.25 6629.16 2312.02 6712.22 2312.02C6795.28 2312.02 6871.7 2291.25 6941.46 2249.72C7012.9 2208.2 7069.38 2152.55 7110.9 2082.78C7152.43 2011.35 7173.2 1934.1 7173.2 1851.04ZM7705.64 876.761C7735.54 876.761 7761.29 887.559 7782.88 909.154C7804.48 930.75 7815.28 956.498 7815.28 986.399C7815.28 1017.96 7804.48 1044.54 7782.88 1066.14C7761.29 1087.73 7735.54 1098.53 7705.64 1098.53C7674.08 1098.53 7647.5 1087.73 7625.9 1066.14C7604.31 1044.54 7593.51 1017.96 7593.51 986.399C7593.51 956.498 7604.31 930.75 7625.9 909.154C7647.5 887.559 7674.08 876.761 7705.64 876.761ZM7790.36 1223.12V2469H7618.43V1223.12H7790.36ZM9062.29 978.924H8636.2V2469H8466.76V978.924H8040.66V811.976H9062.29V978.924ZM9633.88 1407.51C9595.67 1390.9 9557.46 1382.59 9519.25 1382.59C9441.18 1382.59 9373.9 1410.83 9317.42 1467.31C9260.94 1523.79 9232.7 1591.07 9232.7 1669.14V2469H9063.26V1669.14C9063.26 1579.44 9086.52 1498.04 9133.03 1424.95C9181.21 1350.2 9243.5 1294.55 9319.91 1258L9324.9 1255.51C9386.36 1227.27 9451.15 1213.15 9519.25 1213.15C9625.57 1213.15 9720.26 1245.54 9803.32 1310.33L9633.88 1407.51ZM10408.5 2481.46C10295.5 2481.46 10190.1 2453.22 10092 2396.74C9995.7 2340.26 9919.29 2263.84 9862.81 2167.5C9806.33 2069.49 9778.09 1964 9778.09 1851.04C9778.09 1736.42 9806.33 1630.94 9862.81 1534.59C9919.29 1436.58 9995.7 1359.33 10092 1302.85C10190.1 1244.71 10295.5 1215.64 10408.5 1215.64C10523.1 1215.64 10628.6 1244.71 10725 1302.85C10823 1359.33 10900.2 1436.58 10956.7 1534.59C11014.8 1630.94 11043.9 1736.42 11043.9 1851.04C11043.9 1964 11014.8 2069.49 10956.7 2167.5C10900.2 2263.84 10823 2340.26 10725 2396.74C10628.6 2453.22 10523.1 2481.46 10408.5 2481.46ZM10408.5 2314.51C10493.2 2314.51 10570.5 2293.75 10640.2 2252.22C10711.7 2210.69 10768.1 2154.21 10809.7 2082.78C10851.2 2011.35 10872 1934.1 10872 1851.04C10872 1766.32 10851.2 1688.25 10809.7 1616.82C10768.1 1545.39 10711.7 1488.91 10640.2 1447.38C10570.5 1405.85 10493.2 1385.08 10408.5 1385.08C10325.4 1385.08 10248.2 1405.85 10176.8 1447.38C10107 1488.91 10051.4 1545.39 10009.8 1616.82C9968.29 1688.25 9947.53 1766.32 9947.53 1851.04C9947.53 1934.1 9968.29 2011.35 10009.8 2082.78C10051.4 2154.21 10107 2210.69 10176.8 2252.22C10248.2 2293.75 10325.4 2314.51 10408.5 2314.51ZM11761.3 1223.12C11851 1223.12 11933.2 1245.54 12007.9 1290.39C12084.4 1333.59 12145 1393.39 12189.8 1469.8C12234.7 1544.55 12257.1 1626.78 12257.1 1716.49V2469H12085.2V1716.49C12085.2 1658.35 12070.2 1605.19 12040.3 1557.01C12012.1 1507.18 11973.1 1468.14 11923.2 1439.9C11873.4 1410 11819.4 1395.05 11761.3 1395.05C11703.1 1395.05 11649.1 1410 11599.3 1439.9C11549.5 1468.14 11509.6 1507.18 11479.7 1557.01C11451.5 1605.19 11437.3 1658.35 11437.3 1716.49V2469H11267.9V1255.51H11437.3V1365.15C11478.9 1318.63 11527 1283.75 11581.9 1260.49C11638.3 1235.58 11698.1 1223.12 11761.3 1223.12Z" fill="#006868"/>
<path d="M2568.26 2227.55C2508.53 2297.23 2437.19 2351.98 2354.24 2391.8C2272.94 2429.96 2185.01 2449.04 2090.44 2449.04C1977.62 2449.04 1873.1 2420.84 1776.88 2364.43C1680.65 2308.02 1604.33 2231.7 1547.92 2135.47C1491.51 2039.25 1463.31 1934.73 1463.31 1821.91C1463.31 1709.09 1491.51 1604.57 1547.92 1508.34C1604.33 1412.12 1680.65 1335.8 1776.88 1279.39C1873.1 1222.98 1977.62 1194.78 2090.44 1194.78C2185.01 1194.78 2272.94 1214.69 2354.24 1254.5C2437.19 1292.66 2508.53 1346.58 2568.26 1416.26L2416.45 1503.37C2374.97 1460.23 2326.03 1427.05 2269.62 1403.82C2213.21 1378.93 2153.49 1366.49 2090.44 1366.49C2007.49 1366.49 1931.17 1387.23 1861.49 1428.71C1791.81 1468.52 1736.23 1523.27 1694.75 1592.96C1653.27 1662.64 1632.54 1738.95 1632.54 1821.91C1632.54 1904.86 1653.27 1981.18 1694.75 2050.86C1736.23 2120.54 1791.81 2176.12 1861.49 2217.6C1931.17 2257.42 2007.49 2277.33 2090.44 2277.33C2153.49 2277.33 2213.21 2265.71 2269.62 2242.48C2326.03 2217.6 2374.97 2183.59 2416.45 2140.45L2568.26 2227.55Z" fill="#006868"/>
<path d="M2151.11 1489.01V1541.14L2174.28 1572.03L2129.88 1606.78L2084.51 1594.23L2044.93 1559.48L1993.76 1606.78L2016.93 1719.72L2092.23 1768.96H2180.07L2263.09 1823.01L2268.88 1768.96H2340.32L2349.97 1823.01L2369.28 1879L2319.08 1929.2L2311.36 1954.3L2357.69 2031.53L2364.45 2041.18" stroke="#006868" stroke-width="19.3066"/>
<path d="M2016.93 1996.77C2045.57 2024.77 2122.54 2065.7 2201.31 2005.46" stroke="#006868" stroke-width="19.3066"/>
<circle cx="1770.44" cy="1836.44" r="97.4447" fill="#E6F9F9" fill-opacity="0.4"/>
<path d="M1881 1836C1881 1897.3 1831.3 1947 1770 1947C1708.7 1947 1659 1897.3 1659 1836C1659 1774.7 1708.7 1725 1770 1725C1831.3 1725 1881 1774.7 1881 1836ZM1672.39 1836C1672.39 1889.91 1716.09 1933.61 1770 1933.61C1823.91 1933.61 1867.61 1889.91 1867.61 1836C1867.61 1782.09 1823.91 1738.39 1770 1738.39C1716.09 1738.39 1672.39 1782.09 1672.39 1836Z" fill="#006868"/>
<path d="M1803.68 1642.03C1843.06 1576.49 1904.49 1526.16 1977.97 1499.24C2051.46 1472.32 2132.68 1470.38 2208.44 1493.74C2284.19 1517.09 2350.04 1564.38 2395.26 1627.9C2440.49 1691.42 2462.44 1767.45 2457.55 1843.63C2452.66 1919.81 2421.21 1991.66 2368.32 2047.51C2315.43 2103.36 2244.2 2139.91 2166.22 2151.24C2088.23 2162.57 2008.07 2148.01 1938.76 2109.91C1869.45 2071.82 1815.07 2012.44 1784.45 1941.41L1792.35 1938.36C1822.22 2007.64 1875.27 2065.58 1942.89 2102.74C2010.5 2139.9 2088.71 2154.11 2164.79 2143.06C2240.87 2132.01 2310.35 2096.34 2361.95 2041.86C2413.55 1987.38 2444.23 1917.28 2449 1842.96C2453.77 1768.64 2432.36 1694.47 2388.24 1632.5C2344.12 1570.53 2279.88 1524.4 2205.97 1501.61C2132.07 1478.83 2052.83 1480.72 1981.14 1506.99C1909.45 1533.25 1849.53 1582.34 1811.1 1646.29L1803.68 1642.03Z" fill="#006868" stroke="#006868" stroke-width="11.5839"/>
<path d="M2111.9 1925.95C2106.82 1925.95 2101.87 1924.45 2097.65 1921.63C2093.43 1918.81 2090.15 1914.81 2088.21 1910.12C2086.27 1905.44 2085.76 1900.28 2086.75 1895.31C2087.74 1890.33 2090.18 1885.76 2093.76 1882.18C2097.35 1878.59 2101.92 1876.15 2106.89 1875.16C2111.87 1874.17 2117.02 1874.68 2121.71 1876.62C2126.39 1878.56 2130.4 1881.85 2133.22 1886.06C2136.03 1890.28 2137.54 1895.24 2137.54 1900.31C2137.53 1907.11 2134.82 1913.62 2130.02 1918.43C2125.21 1923.24 2118.69 1925.94 2111.9 1925.95ZM2111.9 1884.92C2108.85 1884.92 2105.88 1885.83 2103.35 1887.52C2100.82 1889.21 2098.85 1891.61 2097.68 1894.42C2096.52 1897.23 2096.21 1900.33 2096.81 1903.31C2097.4 1906.3 2098.87 1909.04 2101.02 1911.19C2103.17 1913.34 2105.91 1914.81 2108.89 1915.4C2111.88 1915.99 2114.97 1915.69 2117.78 1914.52C2120.59 1913.36 2123 1911.39 2124.69 1908.86C2126.38 1906.33 2127.28 1903.35 2127.28 1900.31C2127.28 1896.23 2125.65 1892.32 2122.77 1889.44C2119.89 1886.55 2115.97 1884.93 2111.9 1884.92Z" fill="#006868"/>
<path d="M2111.9 1987.48L2068.63 1936.46C2068.03 1935.7 2067.44 1934.93 2066.85 1934.15C2059.46 1924.42 2055.47 1912.52 2055.48 1900.3C2055.48 1885.34 2061.43 1870.99 2072.01 1860.41C2082.59 1849.83 2096.93 1843.89 2111.9 1843.89C2126.86 1843.89 2141.21 1849.83 2151.78 1860.41C2162.36 1870.99 2168.31 1885.34 2168.31 1900.3C2168.32 1912.52 2164.33 1924.4 2156.95 1934.13L2156.94 1934.15C2156.94 1934.15 2155.4 1936.17 2155.17 1936.44L2111.9 1987.48ZM2075.04 1927.97C2075.04 1927.97 2076.23 1929.55 2076.5 1929.89L2111.9 1971.63L2147.33 1929.83C2147.56 1929.55 2148.76 1927.96 2148.76 1927.95C2154.8 1920 2158.06 1910.29 2158.05 1900.3C2158.05 1888.06 2153.19 1876.32 2144.53 1867.67C2135.88 1859.01 2124.14 1854.15 2111.9 1854.15C2099.65 1854.15 2087.91 1859.01 2079.26 1867.67C2070.6 1876.32 2065.74 1888.06 2065.74 1900.3C2065.73 1910.29 2069 1920.01 2075.04 1927.97Z" fill="#006868"/>
<path d="M2062.75 933.773C1868.41 933.773 1679.61 998.526 1526.18 1117.8C1372.75 1237.08 1263.43 1404.07 1215.5 1592.41C1167.57 1780.74 1183.76 1979.68 1261.51 2157.79C1339.26 2335.9 1474.14 2483.02 1644.83 2575.92C1815.53 2668.82 2012.31 2702.2 2204.1 2670.78C2395.88 2639.36 2571.72 2544.93 2703.85 2402.42C2835.98 2259.91 2916.86 2077.43 2933.71 1883.82C2950.56 1690.22 2902.42 1496.51 2796.89 1333.32L2744.66 1367.1C2842.68 1518.68 2887.39 1698.6 2871.74 1878.43C2856.09 2058.26 2780.97 2227.75 2658.24 2360.13C2535.51 2492.5 2372.18 2580.21 2194.04 2609.39C2015.9 2638.58 1833.12 2607.58 1674.57 2521.29C1516.02 2435 1390.73 2298.34 1318.52 2132.9C1246.3 1967.47 1231.26 1782.68 1275.78 1607.75C1320.3 1432.81 1421.84 1277.7 1564.35 1166.91C1706.87 1056.12 1882.24 995.976 2062.75 995.976V933.773Z" fill="#006868"/>
<circle cx="2761.62" cy="1340.58" r="67.7323" fill="#006868"/>
<circle cx="2072.94" cy="968.289" r="67.7323" fill="#006868"/>
<path d="M969 1808.95C969 2068.96 1061.63 2320.47 1230.28 2518.37C1398.92 2716.27 1632.55 2847.61 1889.27 2888.85C2145.99 2930.09 2409.01 2878.52 2631.15 2743.4C2853.29 2608.28 3020.03 2398.43 3101.47 2151.5C3182.9 1904.57 3173.7 1636.71 3075.52 1395.95C2977.34 1155.18 2796.6 957.274 2565.71 837.707C2334.82 718.14 2068.89 684.738 1815.6 743.49C1562.32 802.243 1338.24 949.307 1183.57 1158.31L1241.14 1200.91C1385.69 1005.6 1595.09 868.165 1831.79 813.26C2068.49 758.354 2317.01 789.57 2532.77 901.307C2748.54 1013.04 2917.45 1198 3009.2 1422.99C3100.95 1647.99 3109.55 1898.31 3033.45 2129.07C2957.35 2359.83 2801.53 2555.93 2593.93 2682.21C2386.33 2808.48 2140.54 2856.67 1900.63 2818.14C1660.72 2779.6 1442.39 2656.85 1284.79 2471.91C1127.18 2286.97 1040.62 2051.93 1040.62 1808.95H969Z" fill="#006868"/>
<circle cx="1214.5" cy="1182.5" r="71.4986" fill="#006868"/>
<circle cx="1007.5" cy="1801.5" r="71.4986" fill="#006868"/>
</svg>
