<svg width="206" height="28" viewBox="0 0 206 28" fill="none" xmlns="http://www.w3.org/2000/svg">
<path d="M19.576 7.8C19.32 8.58933 18.9253 9.16533 18.392 9.528C17.8587 9.89067 17.304 10.04 16.728 9.976C16.152 9.89067 15.6613 9.60267 15.256 9.112C15.6187 8.83467 15.7253 8.536 15.576 8.216C15.448 7.87467 15.1173 7.59733 14.584 7.384C14.0507 7.14933 13.368 7.064 12.536 7.128C11.6827 7.17067 10.8187 7.448 9.944 7.96C9.09067 8.472 8.376 9.208 7.8 10.168C7.224 11.128 6.904 12.3227 6.84 13.752C6.776 15.224 6.92533 16.4187 7.288 17.336C7.65067 18.2533 8.09867 18.9573 8.632 19.448C9.18667 19.9173 9.74133 20.2587 10.296 20.472C10.8507 20.664 11.2987 20.792 11.64 20.856C12.088 20.9413 12.6 21.0053 13.176 21.048C13.7733 21.0693 14.3707 21.0267 14.968 20.92C15.5653 20.8133 16.0773 20.632 16.504 20.376C16.888 20.1413 17.368 19.832 17.944 19.448C18.52 19.0427 19.0747 18.5947 19.608 18.104C20.1413 17.6133 20.536 17.112 20.792 16.6C21.5173 17.0907 21.9653 17.784 22.136 18.68C22.328 19.576 22.2533 20.536 21.912 21.56C21.5707 22.584 20.9733 23.5547 20.12 24.472C19.288 25.368 18.2 26.104 16.856 26.68C15.512 27.2347 13.9227 27.4907 12.088 27.448C11.2347 27.4267 10.2533 27.2667 9.144 26.968C8.056 26.6693 6.95733 26.2 5.848 25.56C4.73867 24.8987 3.72533 24.0347 2.808 22.968C1.912 21.88 1.22933 20.536 0.76 18.936C0.290667 17.336 0.162667 15.448 0.376 13.272C0.568 11.2027 1.08 9.42133 1.912 7.928C2.76533 6.43467 3.8 5.21867 5.016 4.28C6.25333 3.32 7.55467 2.60533 8.92 2.136C10.3067 1.64533 11.6293 1.38933 12.888 1.368C14.1467 1.32533 15.2347 1.51733 16.152 1.944C17.0907 2.37067 17.848 2.92533 18.424 3.608C19 4.26933 19.384 4.984 19.576 5.752C19.7893 6.49867 19.7893 7.18133 19.576 7.8ZM49.484 13.272C49.6973 15.256 49.6013 17.016 49.196 18.552C48.812 20.088 48.204 21.4213 47.372 22.552C46.5613 23.6613 45.6013 24.5787 44.492 25.304C43.3827 26.008 42.1987 26.5413 40.94 26.904C39.7027 27.2453 38.476 27.416 37.26 27.416C36.044 27.416 34.8067 27.256 33.548 26.936C32.2893 26.616 31.0947 26.1147 29.964 25.432C28.8547 24.7493 27.8733 23.864 27.02 22.776C26.188 21.688 25.5693 20.3973 25.164 18.904C24.7587 17.3893 24.6627 15.64 24.876 13.656C25.0467 11.9493 25.4733 10.36 26.156 8.888C26.8387 7.39467 27.724 6.104 28.812 5.016C29.9 3.90667 31.148 3.05333 32.556 2.456C33.964 1.83733 35.468 1.54933 37.068 1.592C37.1747 1.592 37.3347 1.51733 37.548 1.368C37.7613 1.19733 38.0493 1.03733 38.412 0.887999C38.7747 0.738666 39.212 0.685333 39.724 0.727999C40.684 0.813332 41.6973 1.208 42.764 1.912C43.8307 2.616 44.844 3.55467 45.804 4.728C46.764 5.88 47.5747 7.192 48.236 8.664C48.8973 10.136 49.3133 11.672 49.484 13.272ZM37.356 21.496C38.1027 21.4747 38.8067 21.368 39.468 21.176C40.1507 20.984 40.7587 20.632 41.292 20.12C41.8253 19.608 42.252 18.8827 42.572 17.944C42.9133 17.0053 43.0947 15.8 43.116 14.328C43.1373 13.304 42.9133 12.312 42.444 11.352C41.9747 10.392 41.324 9.58133 40.492 8.92C39.66 8.23733 38.7107 7.84267 37.644 7.736C36.492 7.608 35.5107 7.72533 34.7 8.088C33.8893 8.42933 33.2173 8.94133 32.684 9.624C32.172 10.2853 31.7773 11.032 31.5 11.864C31.2227 12.696 31.052 13.5387 30.988 14.392C30.86 15.864 30.9987 17.0693 31.404 18.008C31.8093 18.9467 32.3533 19.672 33.036 20.184C33.7187 20.696 34.444 21.048 35.212 21.24C36.0013 21.432 36.716 21.5173 37.356 21.496ZM73.211 4.632C73.2537 4.99467 73.275 5.61333 73.275 6.488C73.2963 7.34133 73.307 8.36533 73.307 9.56C73.307 10.7547 73.307 12.0133 73.307 13.336C73.307 14.6587 73.2963 15.9707 73.275 17.272C73.275 18.5733 73.2643 19.7573 73.243 20.824C73.243 21.8907 73.243 22.7653 73.243 23.448C73.243 24.1093 73.2537 24.4827 73.275 24.568C73.3177 24.7387 73.2857 25.016 73.179 25.4C73.0723 25.7627 72.9017 26.1147 72.667 26.456C72.4323 26.776 72.1337 26.968 71.771 27.032C71.4297 27.1173 70.9497 27.1173 70.331 27.032C69.7337 26.968 69.1257 26.808 68.507 26.552C67.9097 26.2747 67.4297 25.88 67.067 25.368C66.8537 25.0693 66.523 24.6427 66.075 24.088C65.6483 23.512 65.1683 22.8933 64.635 22.232C64.123 21.5493 63.611 20.8987 63.099 20.28C62.6083 19.64 62.1923 19.096 61.851 18.648C61.5097 18.1787 61.2963 17.8907 61.211 17.784C61.019 17.4853 60.699 17.1867 60.251 16.888C59.8243 16.568 59.483 16.4507 59.227 16.536C58.971 16.6213 58.779 16.888 58.651 17.336C58.523 17.7627 58.4377 18.2213 58.395 18.712C58.3523 19.032 58.331 19.5227 58.331 20.184C58.331 20.824 58.331 21.4853 58.331 22.168C58.3523 22.8507 58.3523 23.4053 58.331 23.832C58.3097 24.5787 58.5443 25.2933 59.035 25.976C58.8643 26.0827 58.523 26.2533 58.011 26.488C57.499 26.7013 56.955 26.8933 56.379 27.064C55.803 27.2347 55.3123 27.3093 54.907 27.288C54.2243 27.2453 53.6163 26.8933 53.083 26.232C52.571 25.5707 52.3043 24.7493 52.283 23.768C52.283 23.576 52.2723 23.0427 52.251 22.168C52.251 21.272 52.2403 20.1627 52.219 18.84C52.219 17.5173 52.219 16.088 52.219 14.552C52.219 13.016 52.2083 11.5013 52.187 10.008C52.187 8.49333 52.1763 7.11733 52.155 5.88C52.155 4.62133 52.155 3.61867 52.155 2.872C52.155 2.12533 52.155 1.752 52.155 1.752C53.4563 1.70933 54.555 1.80533 55.451 2.04C56.347 2.27467 57.0937 2.70133 57.691 3.32C57.947 3.55467 58.3203 3.97067 58.811 4.568C59.3017 5.16533 59.835 5.848 60.411 6.616C61.0083 7.36267 61.5843 8.10933 62.139 8.856C62.715 9.60267 63.2163 10.264 63.643 10.84C64.0697 11.3947 64.347 11.7573 64.475 11.928C64.8163 12.3547 65.1577 12.696 65.499 12.952C65.8617 13.1867 66.1603 13.2613 66.395 13.176C66.907 13.0053 67.163 12.2907 67.163 11.032L67.099 1.752C67.3337 1.70933 67.739 1.69867 68.315 1.72C68.9123 1.74133 69.5417 1.83733 70.203 2.008C70.9283 2.17867 71.5897 2.46667 72.187 2.872C72.7843 3.27733 73.1257 3.864 73.211 4.632ZM96.6098 9.944C96.7164 10.584 96.7911 11.2773 96.8338 12.024C96.8978 12.7707 96.8978 13.6773 96.8338 14.744C96.7698 15.7893 96.6204 17.08 96.3858 18.616C96.0658 20.6853 95.2231 22.424 93.8578 23.832C92.4924 25.2187 90.7751 26.1253 88.7058 26.552C88.1298 26.68 87.4578 26.776 86.6898 26.84C85.9218 26.8827 85.1538 26.9253 84.3858 26.968C83.6391 26.9893 82.9671 27.0213 82.3698 27.064C81.8364 27.1707 81.1964 27.2453 80.4498 27.288C79.7031 27.3307 78.9991 27.32 78.3378 27.256C77.6764 27.192 77.1964 27.0747 76.8978 26.904C77.0684 26.6053 77.2071 26.1573 77.3138 25.56C77.4204 24.9413 77.5058 24.2693 77.5698 23.544C77.6338 22.8187 77.6551 22.1253 77.6338 21.464L77.5378 10.616C77.5378 9.74133 77.5271 8.94133 77.5058 8.216C77.5058 7.49067 77.4844 6.92533 77.4418 6.52C77.3991 6.072 77.2284 5.67733 76.9298 5.336C76.6524 4.99467 76.4498 4.65333 76.3218 4.312C75.9804 3.37333 75.8311 2.456 75.8738 1.56C75.9804 1.58133 76.2151 1.61333 76.5778 1.656C76.9618 1.67733 77.3991 1.70933 77.8898 1.752C78.4231 1.77333 79.2551 1.80533 80.3858 1.848C81.5378 1.89067 82.7111 1.93333 83.9058 1.976C83.9058 1.976 84.0764 1.98667 84.4178 2.008C84.7804 2.008 85.2284 2.02933 85.7618 2.072C86.2951 2.11467 86.8498 2.17867 87.4258 2.264C88.0018 2.328 88.5031 2.41333 88.9298 2.52C90.3164 2.88267 91.4791 3.384 92.4178 4.024C93.3778 4.64267 94.1458 5.31467 94.7218 6.04C95.3191 6.76533 95.7671 7.48 96.0658 8.184C96.3644 8.86667 96.5458 9.45333 96.6098 9.944ZM85.4418 20.92C86.3164 20.7067 87.1378 20.2907 87.9058 19.672C88.6951 19.032 89.3138 18.1787 89.7618 17.112C90.2311 16.024 90.4018 14.7013 90.2738 13.144C90.1244 11.1173 89.5911 9.70933 88.6738 8.92C87.7778 8.13067 86.6044 7.72533 85.1538 7.704C84.7484 7.68267 84.4284 7.94933 84.1938 8.504C83.9591 9.05867 83.7991 9.95467 83.7138 11.192C83.6711 12.0027 83.6391 12.6107 83.6178 13.016C83.5964 13.4 83.5858 13.72 83.5858 13.976C83.6071 14.232 83.6071 14.5627 83.5858 14.968C83.5858 14.968 83.5858 15.16 83.5858 15.544C83.6071 15.928 83.6391 16.408 83.6818 16.984C83.7244 17.5387 83.7778 18.1147 83.8418 18.712C83.9058 19.288 83.9804 19.7787 84.0658 20.184C84.1724 20.632 84.3751 20.888 84.6738 20.952C84.9724 20.9947 85.2284 20.984 85.4418 20.92ZM102.284 27.288C101.366 27.1173 100.716 26.4987 100.332 25.432C99.9688 24.3653 99.7875 23.0427 99.7875 21.464C99.7875 21.272 99.7768 20.792 99.7555 20.024C99.7555 19.256 99.7448 18.3067 99.7235 17.176C99.7235 16.024 99.7128 14.7867 99.6915 13.464C99.6915 12.1413 99.6808 10.8187 99.6595 9.496C99.6382 8.17333 99.6168 6.95733 99.5955 5.848C99.5742 4.71733 99.5528 3.78933 99.5315 3.064C99.5102 2.33867 99.4888 1.90133 99.4675 1.752C99.7875 1.688 100.278 1.67733 100.94 1.72C101.622 1.74133 102.326 1.848 103.052 2.04C103.798 2.21067 104.449 2.50933 105.004 2.936C105.558 3.34133 105.878 3.90667 105.964 4.632C106.006 4.97333 106.038 5.56 106.06 6.392C106.081 7.20267 106.092 8.17333 106.092 9.304C106.113 10.4133 106.124 11.5973 106.124 12.856C106.124 14.1147 106.124 15.3627 106.124 16.6C106.124 17.816 106.124 18.9467 106.124 19.992C106.124 21.016 106.124 21.88 106.124 22.584C106.145 23.2667 106.166 23.6827 106.188 23.832C106.23 24.28 106.316 24.6107 106.444 24.824C106.572 25.016 106.71 25.2613 106.86 25.56C106.326 26.136 105.665 26.6053 104.876 26.968C104.086 27.3307 103.222 27.4373 102.284 27.288Z" fill="white"/>
<path d="M129.917 1.24C130.173 1.45333 130.354 1.86933 130.461 2.488C130.589 3.10667 130.642 3.77867 130.621 4.504C130.6 5.208 130.493 5.848 130.301 6.424C130.109 6.97867 129.832 7.30933 129.469 7.416C129.32 7.45867 129.01 7.52267 128.541 7.608C128.093 7.672 127.677 7.75733 127.293 7.864C126.93 7.97066 126.45 8.152 125.853 8.408C125.256 8.664 124.744 9.03733 124.317 9.528C123.976 9.93333 123.698 10.36 123.485 10.808C123.272 11.2347 123.154 11.7893 123.133 12.472C123.112 12.7493 123.101 13.272 123.101 14.04C123.101 14.7867 123.101 15.6613 123.101 16.664C123.101 17.6453 123.101 18.616 123.101 19.576C123.122 20.536 123.133 21.3573 123.133 22.04C123.133 22.7227 123.133 23.128 123.133 23.256C123.112 23.896 123.176 24.44 123.325 24.888C123.474 25.336 123.634 25.6027 123.805 25.688C123.272 26.0933 122.738 26.4347 122.205 26.712C121.693 26.9893 120.957 27.192 119.997 27.32C119.634 27.3627 119.229 27.256 118.781 27C118.333 26.7653 117.938 26.392 117.597 25.88C117.277 25.3467 117.106 24.696 117.085 23.928C117.085 23.16 117.074 22.1787 117.053 20.984C117.053 19.768 117.053 18.456 117.053 17.048C117.074 15.6187 117.074 14.1893 117.053 12.76C117.032 12.1413 116.936 11.5547 116.765 11C116.616 10.4453 116.36 9.96533 115.997 9.56C115.634 9.13333 115.154 8.78133 114.557 8.504C113.96 8.22667 113.213 8.04533 112.317 7.96C112.082 7.93867 111.762 7.87467 111.357 7.768C110.952 7.66133 110.674 7.55467 110.525 7.448C110.29 7.27733 110.098 6.95733 109.949 6.488C109.8 5.99733 109.682 5.464 109.597 4.888C109.512 4.29067 109.448 3.704 109.405 3.128C109.384 2.552 109.384 2.08267 109.405 1.72C109.49 1.74133 109.725 1.77333 110.109 1.816C110.514 1.85867 110.994 1.90133 111.549 1.944C112.104 1.96533 112.648 1.98667 113.181 2.008C113.565 2.02933 114.077 2.05067 114.717 2.072C115.378 2.09333 116.082 2.11467 116.829 2.136C117.576 2.15733 118.28 2.17867 118.941 2.2C119.602 2.2 120.146 2.2 120.573 2.2C121.149 2.17867 121.821 2.15733 122.589 2.136C123.357 2.11467 124.093 2.09333 124.797 2.072C125.522 2.02933 126.098 1.98667 126.525 1.944C126.952 1.90133 127.4 1.848 127.869 1.784C128.36 1.69866 128.786 1.61333 129.149 1.528C129.533 1.42133 129.789 1.32533 129.917 1.24ZM150.818 16.856C150.733 16.8773 150.605 16.9947 150.434 17.208C150.285 17.4213 150.178 17.6453 150.114 17.88C150.008 18.2213 150.04 18.4987 150.21 18.712C150.658 19.2453 151.234 19.8747 151.938 20.6C152.642 21.304 153.346 21.976 154.05 22.616C154.776 23.256 155.394 23.7467 155.906 24.088C155.522 25.112 154.914 25.9333 154.082 26.552C153.272 27.1493 152.365 27.4373 151.362 27.416C150.36 27.3947 149.378 26.9467 148.418 26.072C148.29 25.944 148.045 25.6667 147.682 25.24C147.32 24.792 146.904 24.2693 146.434 23.672C145.965 23.0747 145.496 22.4773 145.026 21.88C144.557 21.2827 144.152 20.76 143.81 20.312C143.469 19.864 143.256 19.5867 143.17 19.48C142.765 18.9467 142.381 18.8293 142.018 19.128C141.656 19.4267 141.432 20.0453 141.346 20.984C141.304 21.5387 141.304 22.1787 141.346 22.904C141.41 23.608 141.496 24.2373 141.602 24.792C141.73 25.3467 141.858 25.6773 141.986 25.784C141.538 26.1253 140.984 26.4453 140.322 26.744C139.661 27.0427 138.904 27.224 138.05 27.288C137.73 27.3093 137.357 27.224 136.93 27.032C136.504 26.84 136.13 26.5307 135.81 26.104C135.512 25.656 135.352 25.1013 135.33 24.44C135.33 24.2693 135.32 23.8213 135.298 23.096C135.298 22.3707 135.288 21.4853 135.266 20.44C135.266 19.3733 135.266 18.2747 135.266 17.144C135.266 16.0133 135.256 14.9467 135.234 13.944C135.234 12.9413 135.234 12.1307 135.234 11.512C135.234 10.8933 135.234 10.584 135.234 10.584C135.234 9.32533 135.202 8.28 135.138 7.448C135.074 6.59467 134.818 5.944 134.37 5.496C133.965 5.09067 133.656 4.504 133.442 3.736C133.25 2.968 133.165 2.24267 133.186 1.56C133.272 1.58133 133.528 1.61333 133.954 1.656C134.381 1.67733 134.797 1.70933 135.202 1.752C135.48 1.752 135.874 1.752 136.386 1.752C136.92 1.73067 137.485 1.70933 138.082 1.688C138.68 1.66667 139.234 1.656 139.746 1.656C140.258 1.63467 140.642 1.61333 140.898 1.592C141.09 1.592 141.442 1.592 141.954 1.592C142.488 1.57067 143.106 1.56 143.81 1.56C144.514 1.56 145.229 1.57067 145.954 1.592C146.68 1.592 147.352 1.61333 147.97 1.656C148.589 1.69867 149.069 1.752 149.41 1.816C150.818 2.072 151.906 2.54133 152.674 3.224C153.442 3.90667 153.986 4.728 154.306 5.688C154.648 6.648 154.85 7.69333 154.914 8.824C154.957 9.784 154.85 10.7867 154.594 11.832C154.338 12.8773 153.901 13.848 153.282 14.744C152.664 15.64 151.842 16.344 150.818 16.856ZM141.41 9.976C141.41 10.6587 141.57 11.1707 141.89 11.512C142.21 11.832 142.509 12.024 142.786 12.088C143.17 12.1733 143.661 12.184 144.258 12.12C144.856 12.0347 145.453 11.8853 146.05 11.672C146.648 11.4373 147.149 11.1387 147.554 10.776C147.981 10.4133 148.194 9.99733 148.194 9.528C148.194 8.90933 147.938 8.44 147.426 8.12C146.914 7.77867 146.264 7.56533 145.474 7.48C144.706 7.39467 143.938 7.416 143.17 7.544C142.573 7.62933 142.125 7.896 141.826 8.344C141.528 8.792 141.389 9.336 141.41 9.976ZM181.89 13.272C182.104 15.256 182.008 17.016 181.602 18.552C181.218 20.088 180.61 21.4213 179.778 22.552C178.968 23.6613 178.008 24.5787 176.898 25.304C175.789 26.008 174.605 26.5413 173.346 26.904C172.109 27.2453 170.882 27.416 169.666 27.416C168.45 27.416 167.213 27.256 165.954 26.936C164.696 26.616 163.501 26.1147 162.37 25.432C161.261 24.7493 160.28 23.864 159.426 22.776C158.594 21.688 157.976 20.3973 157.57 18.904C157.165 17.3893 157.069 15.64 157.282 13.656C157.453 11.9493 157.88 10.36 158.562 8.888C159.245 7.39467 160.13 6.104 161.218 5.016C162.306 3.90667 163.554 3.05333 164.962 2.456C166.37 1.83733 167.874 1.54933 169.474 1.592C169.581 1.592 169.741 1.51733 169.954 1.368C170.168 1.19733 170.456 1.03733 170.818 0.887999C171.181 0.738666 171.618 0.685333 172.13 0.727999C173.09 0.813332 174.104 1.208 175.17 1.912C176.237 2.616 177.25 3.55467 178.21 4.728C179.17 5.88 179.981 7.192 180.642 8.664C181.304 10.136 181.72 11.672 181.89 13.272ZM169.762 21.496C170.509 21.4747 171.213 21.368 171.874 21.176C172.557 20.984 173.165 20.632 173.698 20.12C174.232 19.608 174.658 18.8827 174.978 17.944C175.32 17.0053 175.501 15.8 175.522 14.328C175.544 13.304 175.32 12.312 174.85 11.352C174.381 10.392 173.73 9.58133 172.898 8.92C172.066 8.23733 171.117 7.84267 170.05 7.736C168.898 7.608 167.917 7.72533 167.106 8.088C166.296 8.42933 165.624 8.94133 165.09 9.624C164.578 10.2853 164.184 11.032 163.906 11.864C163.629 12.696 163.458 13.5387 163.394 14.392C163.266 15.864 163.405 17.0693 163.81 18.008C164.216 18.9467 164.76 19.672 165.442 20.184C166.125 20.696 166.85 21.048 167.618 21.24C168.408 21.432 169.122 21.5173 169.762 21.496ZM205.617 4.632C205.66 4.99467 205.681 5.61333 205.681 6.488C205.703 7.34133 205.713 8.36533 205.713 9.56C205.713 10.7547 205.713 12.0133 205.713 13.336C205.713 14.6587 205.703 15.9707 205.681 17.272C205.681 18.5733 205.671 19.7573 205.649 20.824C205.649 21.8907 205.649 22.7653 205.649 23.448C205.649 24.1093 205.66 24.4827 205.681 24.568C205.724 24.7387 205.692 25.016 205.585 25.4C205.479 25.7627 205.308 26.1147 205.073 26.456C204.839 26.776 204.54 26.968 204.177 27.032C203.836 27.1173 203.356 27.1173 202.737 27.032C202.14 26.968 201.532 26.808 200.913 26.552C200.316 26.2747 199.836 25.88 199.473 25.368C199.26 25.0693 198.929 24.6427 198.481 24.088C198.055 23.512 197.575 22.8933 197.041 22.232C196.529 21.5493 196.017 20.8987 195.505 20.28C195.015 19.64 194.599 19.096 194.257 18.648C193.916 18.1787 193.703 17.8907 193.617 17.784C193.425 17.4853 193.105 17.1867 192.657 16.888C192.231 16.568 191.889 16.4507 191.633 16.536C191.377 16.6213 191.185 16.888 191.057 17.336C190.929 17.7627 190.844 18.2213 190.801 18.712C190.759 19.032 190.737 19.5227 190.737 20.184C190.737 20.824 190.737 21.4853 190.737 22.168C190.759 22.8507 190.759 23.4053 190.737 23.832C190.716 24.5787 190.951 25.2933 191.441 25.976C191.271 26.0827 190.929 26.2533 190.417 26.488C189.905 26.7013 189.361 26.8933 188.785 27.064C188.209 27.2347 187.719 27.3093 187.313 27.288C186.631 27.2453 186.023 26.8933 185.489 26.232C184.977 25.5707 184.711 24.7493 184.689 23.768C184.689 23.576 184.679 23.0427 184.657 22.168C184.657 21.272 184.647 20.1627 184.625 18.84C184.625 17.5173 184.625 16.088 184.625 14.552C184.625 13.016 184.615 11.5013 184.593 10.008C184.593 8.49333 184.583 7.11733 184.561 5.88C184.561 4.62133 184.561 3.61867 184.561 2.872C184.561 2.12533 184.561 1.752 184.561 1.752C185.863 1.70933 186.961 1.80533 187.857 2.04C188.753 2.27467 189.5 2.70133 190.097 3.32C190.353 3.55467 190.727 3.97067 191.217 4.568C191.708 5.16533 192.241 5.848 192.817 6.616C193.415 7.36267 193.991 8.10933 194.545 8.856C195.121 9.60267 195.623 10.264 196.049 10.84C196.476 11.3947 196.753 11.7573 196.881 11.928C197.223 12.3547 197.564 12.696 197.905 12.952C198.268 13.1867 198.567 13.2613 198.801 13.176C199.313 13.0053 199.569 12.2907 199.569 11.032L199.505 1.752C199.74 1.70933 200.145 1.69867 200.721 1.72C201.319 1.74133 201.948 1.83733 202.609 2.008C203.335 2.17867 203.996 2.46667 204.593 2.872C205.191 3.27733 205.532 3.864 205.617 4.632Z" fill="#76FFFF"/>
</svg>
