<svg width="31" height="32" viewBox="0 0 31 32" fill="none" xmlns="http://www.w3.org/2000/svg">
<path d="M13.1798 25.0455C13.8051 24.9132 17.6155 24.9132 18.2408 25.0455C18.7754 25.1689 19.3535 25.4574 19.3535 26.0873C19.3224 26.687 18.9706 27.2187 18.4845 27.5563C17.8542 28.0476 17.1145 28.3588 16.3412 28.4709C15.9136 28.5264 15.4934 28.5276 15.0806 28.4709C14.3061 28.3588 13.5664 28.0476 12.9374 27.555C12.45 27.2187 12.0982 26.687 12.0671 26.0873C12.0671 25.4574 12.6452 25.1689 13.1798 25.0455ZM15.7842 3.49561C18.3862 3.49561 21.0441 4.73024 22.6229 6.77871C23.6473 8.09775 24.1173 9.41553 24.1173 11.464V11.9969C24.1173 13.5679 24.5325 14.4939 25.4462 15.561C26.1387 16.3471 26.36 17.3562 26.36 18.451C26.36 19.5445 26.0007 20.5826 25.2809 21.4255C24.3385 22.4358 23.0096 23.0809 21.6533 23.193C19.6878 23.3606 17.721 23.5017 15.7282 23.5017C13.7341 23.5017 11.7687 23.4172 9.80317 23.193C8.44561 23.0809 7.11664 22.4358 6.17555 21.4255C5.45574 20.5826 5.09521 19.5445 5.09521 18.451C5.09521 17.3562 5.31775 16.3471 6.00896 15.561C6.9513 14.4939 7.33917 13.5679 7.33917 11.9969V11.464C7.33917 9.3601 7.8638 7.98437 8.94413 6.63761C10.5503 4.67354 13.125 3.49561 15.6723 3.49561H15.7842Z" fill="#2B2B36"/>
<circle cx="22.7303" cy="6.99637" r="4.00278" fill="#FF0000"/>
</svg>
