<svg width="16" height="16" viewBox="0 0 16 16" fill="none" xmlns="http://www.w3.org/2000/svg">
<path d="M14.6025 0.5C15.1338 0.5 15.6025 0.96875 15.6025 1.5V6C15.6025 6.5625 15.1338 7 14.6025 7H10.6025C10.04 7 9.60254 6.5625 9.60254 6C9.60254 5.46875 10.04 5 10.6025 5H11.9775C11.1025 3.78125 9.66504 3 8.10254 3C6.00879 3 4.16504 4.34375 3.54004 6.3125C3.38379 6.84375 2.82129 7.125 2.29004 6.96875C1.75879 6.8125 1.47754 6.25 1.63379 5.71875C2.54004 2.90625 5.13379 1 8.10254 1C10.3213 1 12.3525 2.09375 13.6025 3.84375V1.5C13.6025 0.96875 14.04 0.5 14.6025 0.5ZM13.8838 9.0625C14.415 9.21875 14.6963 9.78125 14.5088 10.3125C13.6025 13.125 11.0088 15 8.07129 15C5.85254 15 3.82129 13.9375 2.60254 12.1875V14.5C2.60254 15.0625 2.13379 15.5 1.60254 15.5C1.04004 15.5 0.602539 15.0625 0.602539 14.5V10C0.602539 9.46875 1.04004 9 1.60254 9H5.60254C6.13379 9 6.60254 9.46875 6.60254 10C6.60254 10.5625 6.13379 11 5.60254 11H4.19629C5.07129 12.25 6.50879 13 8.10254 13C10.165 13 12.0088 11.6875 12.6338 9.71875C12.79 9.1875 13.3525 8.90625 13.8838 9.0625Z" fill="#373737"/>
</svg>
