<svg width="22" height="20" viewBox="0 0 22 20" fill="none" xmlns="http://www.w3.org/2000/svg">
<path d="M15 1.96776C16.4817 2.70411 17.5 4.23314 17.5 6C17.5 7.76686 16.4817 9.29589 15 10.0322M17 15.2664C18.5115 15.9503 19.8725 17.065 21 18.5M1 18.5C2.94649 16.0226 5.58918 14.5 8.5 14.5C11.4108 14.5 14.0535 16.0226 16 18.5M13 6C13 8.48528 10.9853 10.5 8.5 10.5C6.01472 10.5 4 8.48528 4 6C4 3.51472 6.01472 1.5 8.5 1.5C10.9853 1.5 13 3.51472 13 6Z" stroke="#009999" stroke-opacity="0.7" stroke-width="2" stroke-linecap="round" stroke-linejoin="round"/>
</svg>
